<?xml version="1.0" encoding="utf-8"?>
<!-- Generator: Adobe Illustrator 16.0.3, SVG Export Plug-In . SVG Version: 6.00 Build 0)  -->
<!DOCTYPE svg PUBLIC "-//W3C//DTD SVG 1.1//EN" "http://www.w3.org/Graphics/SVG/1.1/DTD/svg11.dtd">
<svg version="1.1" id="Layer_1" xmlns="http://www.w3.org/2000/svg" xmlns:xlink="http://www.w3.org/1999/xlink" x="0px" y="0px"
	 width="390.625px" height="56.771px" viewBox="0 0 390.625 56.771" enable-background="new 0 0 390.625 56.771"
	 xml:space="preserve">
<g>
	<path d="M45.475,41.527V14.551h0.76v26.216h16.946v0.76H45.475z"/>
	<path d="M64.703,31.535c0-5.547,4.142-10.031,9.309-10.031c5.243,0,9.461,4.521,9.499,10.183v0.417H65.463
		c0.38,5.091,4.18,9.043,8.777,9.043c3.04,0,5.965-1.71,7.067-4.142l0.722,0.189c-1.064,2.698-4.408,4.712-7.827,4.712
		C68.997,41.907,64.703,37.195,64.703,31.535z M82.712,31.344c-0.342-5.281-3.989-9.081-8.663-9.081s-8.321,3.875-8.587,9.081
		H82.712z"/>
	<path d="M86.325,35.866c0-3.306,3.343-5.623,8.131-5.623c2.242,0,4.749,0.418,6.611,1.102v-2.241c0-4.104-2.583-6.839-6.459-6.839
		c-1.9,0-4.179,0.874-6.383,2.431l-0.456-0.607c2.507-1.71,4.787-2.583,6.839-2.583c4.407,0,7.219,2.963,7.219,7.599v10.904
		c0,0.494,0.228,0.76,0.608,0.76v0.76c-0.304,0-0.418,0-0.532-0.076c-0.494-0.189-0.836-0.798-0.836-1.443v-1.824
		c-1.824,2.355-4.939,3.724-8.359,3.724C89.137,41.907,86.325,39.248,86.325,35.866z M100.497,37.652
		c0.38-0.532,0.57-1.102,0.57-1.559V32.18c-2.052-0.798-4.255-1.178-6.611-1.178c-4.408,0-7.371,1.938-7.371,4.863
		c0,2.964,2.47,5.281,5.623,5.281C96.09,41.147,99.129,39.779,100.497,37.652z"/>
	<path d="M116.419,22.568c-3.724,0.152-6.611,2.584-7.675,6.497v12.462h-0.76V21.808h0.76v5.091
		c1.368-2.773,3.837-4.711,6.421-5.015c0.494-0.038,0.95-0.076,1.254-0.076V22.568z"/>
	<path d="M135.646,41.527h-0.76v-10.98c0-5.737-1.52-8.283-5.053-8.283c-3.8,0-7.637,2.925-8.739,6.801v12.462h-0.76V21.808h0.76
		v5.091c1.634-3.191,5.167-5.395,8.701-5.395c4.027,0,5.851,2.849,5.851,9.042V41.527z"/>
	<path d="M141.728,16.716v-2.925h0.76v2.925H141.728z M141.728,41.527V21.808h0.76v19.719H141.728z"/>
	<path d="M164.107,41.527h-0.76v-10.98c0-5.737-1.52-8.283-5.053-8.283c-3.8,0-7.637,2.925-8.739,6.801v12.462h-0.76V21.808h0.76
		v5.091c1.634-3.191,5.167-5.395,8.701-5.395c4.027,0,5.851,2.849,5.851,9.042V41.527z"/>
	<path d="M168.821,31.724c0-5.281,3.762-10.22,9.157-10.22c3.571,0,6.155,2.204,8.055,4.902v-4.598h0.76v20.555
		c0,5.205-4.217,7.637-8.701,7.637c-4.673,0-7.067-1.899-8.548-4.711l0.722-0.229c1.596,2.964,4.635,4.18,7.827,4.18
		c4.332,0,7.941-2.355,7.941-6.877v-4.939c-1.672,2.621-4.711,4.483-7.713,4.483C172.811,41.907,168.821,36.777,168.821,31.724z
		 M186.033,35.106v-7.104c-1.254-3.307-4.673-5.738-8.055-5.738c-5.319,0-8.397,4.977-8.397,9.46c0,4.939,3.875,9.423,8.739,9.423
		C182.043,41.147,185.805,37.917,186.033,35.106z"/>
	<path d="M203.401,41.527V14.589h3.42v26.938H203.401z"/>
	<path d="M229.884,41.527h-3.343V30.433c0-4.218-1.293-6.08-3.914-6.08c-2.736,0-5.699,2.204-6.611,5.205v11.969h-3.344V21.694h3.04
		v4.255c1.558-2.773,4.749-4.597,8.245-4.597c4.598,0,5.927,3.533,5.927,8.32V41.527z"/>
	<path d="M252.152,41.527h-3.343V30.433c0-4.218-1.293-6.08-3.914-6.08c-2.736,0-5.699,2.204-6.611,5.205v11.969h-3.344V21.694h3.04
		v4.255c1.558-2.773,4.749-4.597,8.245-4.597c4.598,0,5.927,3.533,5.927,8.32V41.527z"/>
	<path d="M255.955,31.648c0-5.547,4.104-10.296,9.993-10.296c5.927,0,10.029,4.749,10.029,10.296c0,5.51-4.064,10.259-10.029,10.259
		C259.982,41.907,255.955,37.158,255.955,31.648z M265.948,39.019c3.646,0,6.61-3.268,6.61-7.408c0-4.104-2.964-7.372-6.61-7.372
		c-3.609,0-6.574,3.305-6.574,7.448C259.374,35.828,262.299,39.019,265.948,39.019z"/>
	<path d="M285.024,41.527l-7.828-19.833h3.458l6.269,16.907l6.308-16.907h3.191l-7.827,19.833H285.024z"/>
	<path d="M297.603,35.828c0-3.762,3.458-6.23,8.358-6.23c1.938,0,4.027,0.379,5.548,0.987v-1.596c0-3.229-1.938-5.205-5.243-5.205
		c-2.052,0-4.142,0.798-6.307,2.317l-1.103-2.166c2.546-1.71,5.054-2.583,7.789-2.583c5.054,0,8.206,2.964,8.206,7.979v8.093
		c0,0.836,0.305,1.178,1.064,1.216v2.888c-0.494,0.076-0.988,0.152-1.367,0.152c-1.103,0-2.432-0.57-2.508-2.014l-0.076-1.406
		c-1.786,2.394-4.826,3.647-7.523,3.647C300.453,41.907,297.603,39.208,297.603,35.828z M310.788,37.043
		c0.494-0.569,0.722-1.14,0.722-1.558V32.56c-1.558-0.607-3.382-0.949-5.016-0.949c-3.419,0-5.698,1.52-5.698,3.913
		c0,2.052,1.671,3.875,4.482,3.875C307.406,39.399,309.647,38.374,310.788,37.043z"/>
	<path d="M330.243,40.539c-0.836,0.381-2.697,1.254-4.824,1.254c-2.432,0-4.484-1.291-4.484-4.141V24.316h-2.697v-2.622h2.697
		v-6.611h3.344v6.611h4.445v2.622h-4.445v12.31c0.076,1.444,1.064,2.09,2.242,2.09c1.33,0,2.545-0.608,2.926-0.836L330.243,40.539z"
		/>
	<path d="M333.131,17.97v-4.179h3.344v4.179H333.131z M333.131,41.527V21.694h3.344v19.833H333.131z"/>
	<path d="M340.465,31.648c0-5.547,4.104-10.296,9.993-10.296c5.927,0,10.03,4.749,10.03,10.296c0,5.51-4.065,10.259-10.03,10.259
		C344.493,41.907,340.465,37.158,340.465,31.648z M350.458,39.019c3.647,0,6.61-3.268,6.61-7.408c0-4.104-2.963-7.372-6.61-7.372
		c-3.609,0-6.573,3.305-6.573,7.448C343.885,35.828,346.811,39.019,350.458,39.019z"/>
	<path d="M381.655,41.527h-3.344V30.433c0-4.218-1.291-6.08-3.913-6.08c-2.735,0-5.699,2.204-6.61,5.205v11.969h-3.344V21.694h3.039
		v4.255c1.558-2.773,4.75-4.597,8.244-4.597c4.598,0,5.928,3.533,5.928,8.32V41.527z"/>
</g>
<path fill="#F6921E" d="M27.514,10.271H7.667v34h19.847l9.704-17.001L27.514,10.271z M24.453,40.271h-8.855l7.799-13.001
	l-7.799-12.999h8.855l7.621,12.999L24.453,40.271z"/>
</svg>
